<!--
Exported from text with the CSS attributes:

    font-family: "Josefin Sans";
    font-size: 32px;
    font-weight: 400;
    color: #222;

Using Sketch's "Convert to Outline"
-->

<svg width="185px" height="38px" viewBox="0 0 185 38" version="1.1" 
    xmlns="http://www.w3.org/2000/svg" 
    xmlns:xlink="http://www.w3.org/1999/xlink">
    <g id="Resources" stroke="none" stroke-width="1" fill="none" fill-rule="evenodd">
        <g id="Page-title" fill="#222222" fill-rule="nonzero">
            <path d="M22.26,31.024 L16.852,17.2 L10.932,31.088 L1.716,6.96 L5.332,6.96 L11.316,23.792 L15.316,13.296 L12.852,6.96 L15.924,6.96 L22.356,23.44 L28.052,6.96 L31.38,6.96 L22.26,31.024 Z M37.78,16.752 L37.78,30 L34.804,30 L34.804,16.752 L37.78,16.752 Z M34.58,11.984 C34.58,11.5146643 34.7613315,11.1200016 35.124,10.8 C35.4866685,10.4799984 35.9026643,10.32 36.372,10.32 C36.8413357,10.32 37.2519982,10.4799984 37.604,10.8 C37.9560018,11.1200016 38.132,11.5146643 38.132,11.984 C38.132,12.4533357 37.9560018,12.8479984 37.604,13.168 C37.2519982,13.4880016 36.8413357,13.648 36.372,13.648 C35.9026643,13.648 35.4866685,13.4880016 35.124,13.168 C34.7613315,12.8479984 34.58,12.4533357 34.58,11.984 Z M45.94,5.2 L45.94,30 L42.964,30 L42.964,5.2 L45.94,5.2 Z M54.1,5.2 L54.1,30 L51.124,30 L51.124,5.2 L54.1,5.2 Z M62.26,16.752 L62.26,30 L59.284,30 L59.284,16.752 L62.26,16.752 Z M59.06,11.984 C59.06,11.5146643 59.2413315,11.1200016 59.604,10.8 C59.9666685,10.4799984 60.3826643,10.32 60.852,10.32 C61.3213357,10.32 61.7319982,10.4799984 62.084,10.8 C62.4360018,11.1200016 62.612,11.5146643 62.612,11.984 C62.612,12.4533357 62.4360018,12.8479984 62.084,13.168 C61.7319982,13.4880016 61.3213357,13.648 60.852,13.648 C60.3826643,13.648 59.9666685,13.4880016 59.604,13.168 C59.2413315,12.8479984 59.06,12.4533357 59.06,11.984 Z M81.044,16.752 L81.044,30 L78.068,30 L78.068,27.824 C77.5986643,28.4426698 76.9160045,29.0133307 76.02,29.536 C75.1239955,30.0586693 74.1106723,30.32 72.98,30.32 C71.721327,30.32 70.5853384,30.0480027 69.572,29.504 C68.5586616,28.9599973 67.7586696,28.1653386 67.172,27.12 C66.5853304,26.0746614 66.292,24.8266739 66.292,23.376 C66.292,21.9253261 66.595997,20.6613387 67.204,19.584 C67.812003,18.5066613 68.6333282,17.6746696 69.668,17.088 C70.7026718,16.5013304 71.849327,16.208 73.108,16.208 C74.2386723,16.208 75.2199958,16.4533309 76.052,16.944 C76.8840042,17.4346691 77.5559974,18.0746627 78.068,18.864 L78.292,16.752 L81.044,16.752 Z M73.78,27.856 C74.8680054,27.856 75.8013294,27.552003 76.58,26.944 C77.3586706,26.335997 77.8546656,25.5093386 78.068,24.464 L78.068,21.84 C77.8119987,20.9013286 77.2786707,20.1386696 76.468,19.552 C75.6573293,18.9653304 74.7293386,18.672 73.684,18.672 C72.8946627,18.672 72.1640034,18.8639981 71.492,19.248 C70.8199966,19.6320019 70.2866686,20.1706632 69.892,20.864 C69.4973314,21.5573368 69.3,22.341329 69.3,23.216 C69.3,24.0693376 69.5026646,24.8479965 69.908,25.552 C70.3133354,26.2560035 70.8573299,26.8159979 71.54,27.232 C72.2226701,27.6480021 72.9693293,27.856 73.78,27.856 Z M103.22,16.208 C104.500006,16.208 105.518663,16.570663 106.276,17.296 C107.033337,18.021337 107.433333,18.9813274 107.476,20.176 L107.476,30 L104.5,30 L104.5,21.264 C104.436,19.7066589 103.732007,18.8853338 102.388,18.8 C101.619996,18.8 100.932003,19.029331 100.324,19.488 C99.715997,19.946669 99.241335,20.5493296 98.9,21.296 C98.558665,22.0426704 98.3773334,22.8426624 98.356,23.696 L98.356,30 L95.348,30 L95.348,21.264 C95.2839997,19.7066589 94.5586736,18.8853338 93.172,18.8 C92.4253296,18.8 91.748003,19.029331 91.14,19.488 C90.531997,19.946669 90.057335,20.5546629 89.716,21.312 C89.374665,22.0693371 89.204,22.8746624 89.204,23.728 L89.204,30 L86.228,30 L86.228,16.752 L88.916,16.752 L89.14,19.248 C89.6520026,18.2879952 90.3506622,17.541336 91.236,17.008 C92.1213378,16.474664 93.1293277,16.208 94.26,16.208 C95.326672,16.208 96.222663,16.4586642 96.948,16.96 C97.673337,17.4613358 98.1426656,18.149329 98.356,19.024 C98.9106694,18.149329 99.6146624,17.4613358 100.468,16.96 C101.321338,16.4586642 102.238662,16.208 103.22,16.208 Z M133.78,18 C135.102673,18.5120026 136.147996,19.2426619 136.916,20.192 C137.684004,21.1413381 138.068,22.245327 138.068,23.504 C138.068,24.9760074 137.71067,26.1973285 136.996,27.168 C136.28133,28.1386715 135.342672,28.853331 134.18,29.312 C133.017328,29.770669 131.742674,30 130.356,30 L123.476,30 L123.476,6.864 L129.46,6.864 C131.828012,6.864 133.66266,7.34932848 134.964,8.32 C136.26534,9.29067152 136.916,10.746657 136.916,12.688 C136.916,13.9040061 136.644003,14.9653288 136.1,15.872 C135.555997,16.7786712 134.782672,17.4879974 133.78,18 Z M126.58,16.976 L130.1,16.976 C131.294673,16.976 132.195997,16.6346701 132.804,15.952 C133.412003,15.2693299 133.716,14.394672 133.716,13.328 C133.716,12.1546608 133.353337,11.2800029 132.628,10.704 C131.902663,10.1279971 130.88934,9.84 129.588,9.84 L126.58,9.84 L126.58,16.976 Z M130.228,27.12 C131.572007,27.12 132.681329,26.816003 133.556,26.208 C134.430671,25.599997 134.868,24.7093392 134.868,23.536 C134.868,22.3199939 134.393338,21.4240029 133.444,20.848 C132.494662,20.2719971 131.348007,19.984 130.004,19.984 L126.58,19.984 L126.58,27.12 L130.228,27.12 Z M156.148,16.752 L156.148,30 L153.172,30 L153.172,27.824 C152.702664,28.4426698 152.020004,29.0133307 151.124,29.536 C150.227996,30.0586693 149.214672,30.32 148.084,30.32 C146.825327,30.32 145.689338,30.0480027 144.676,29.504 C143.662662,28.9599973 142.86267,28.1653386 142.276,27.12 C141.68933,26.0746614 141.396,24.8266739 141.396,23.376 C141.396,21.9253261 141.699997,20.6613387 142.308,19.584 C142.916003,18.5066613 143.737328,17.6746696 144.772,17.088 C145.806672,16.5013304 146.953327,16.208 148.212,16.208 C149.342672,16.208 150.323996,16.4533309 151.156,16.944 C151.988004,17.4346691 152.659997,18.0746627 153.172,18.864 L153.396,16.752 L156.148,16.752 Z M148.884,27.856 C149.972005,27.856 150.905329,27.552003 151.684,26.944 C152.462671,26.335997 152.958666,25.5093386 153.172,24.464 L153.172,21.84 C152.915999,20.9013286 152.382671,20.1386696 151.572,19.552 C150.761329,18.9653304 149.833339,18.672 148.788,18.672 C147.998663,18.672 147.268003,18.8639981 146.596,19.248 C145.923997,19.6320019 145.390669,20.1706632 144.996,20.864 C144.601331,21.5573368 144.404,22.341329 144.404,23.216 C144.404,24.0693376 144.606665,24.8479965 145.012,25.552 C145.417335,26.2560035 145.96133,26.8159979 146.644,27.232 C147.32667,27.6480021 148.073329,27.856 148.884,27.856 Z M164.308,16.752 L164.308,30 L161.332,30 L161.332,16.752 L164.308,16.752 Z M161.108,11.984 C161.108,11.5146643 161.289332,11.1200016 161.652,10.8 C162.014668,10.4799984 162.430664,10.32 162.9,10.32 C163.369336,10.32 163.779998,10.4799984 164.132,10.8 C164.484002,11.1200016 164.66,11.5146643 164.66,11.984 C164.66,12.4533357 164.484002,12.8479984 164.132,13.168 C163.779998,13.4880016 163.369336,13.648 162.9,13.648 C162.430664,13.648 162.014668,13.4880016 161.652,13.168 C161.289332,12.8479984 161.108,12.4533357 161.108,11.984 Z M177.716,16.24 C178.95334,16.24 179.977329,16.6079963 180.788,17.344 C181.598671,18.0800037 182.014667,19.0346608 182.036,20.208 L182.036,30 L179.028,30 L179.028,21.232 C178.985333,20.4853296 178.761335,19.8986688 178.356,19.472 C177.950665,19.0453312 177.342671,18.8213334 176.532,18.8 C175.358661,18.8 174.388004,19.2693286 173.62,20.208 C172.851996,21.1466714 172.468,22.3413261 172.468,23.792 L172.468,30 L169.492,30 L169.492,16.752 L172.18,16.752 L172.372,19.312 C172.841336,18.3519952 173.545329,17.6000027 174.484,17.056 C175.422671,16.5119973 176.499994,16.24 177.716,16.24 Z" id="WilliamBain"></path>
        </g>
    </g>
</svg>
